REM DIRINDEX 1\2,1\3,1\4,1\5
REM DIRNAME "folder01","folder02","folder03","folder04","folder05"
TITLE ""
FILE "P1Q_t_0701-0709.mp3" MP3
  TRACK 01 AUDIO
    TITLE "0:"
    INDEX 01 00:00:00
  TRACK 02 AUDIO
    TITLE "2:cjc173_3041"
    INDEX 01 00:00:08
  TRACK 03 AUDIO
    TITLE "0:"
    INDEX 01 00:01:43
  TRACK 04 AUDIO
    TITLE "2:cjc173_3042"
    INDEX 01 00:02:15
  TRACK 05 AUDIO
    TITLE "0:"
    INDEX 01 00:03:18
  TRACK 06 AUDIO
    TITLE "3:cjc173_3043"
    INDEX 01 00:03:63
  TRACK 07 AUDIO
    TITLE "0:"
    INDEX 01 00:04:71
  TRACK 08 AUDIO
    TITLE "4:cjc173_3044"
    INDEX 01 00:05:15
  TRACK 09 AUDIO
    TITLE "0:"
    INDEX 01 00:08:06
  TRACK 10 AUDIO
    TITLE "5:cjc173_3045"
    INDEX 01 00:08:25
  TRACK 11 AUDIO
    TITLE "0:"
    INDEX 01 00:11:34
  TRACK 12 AUDIO
    TITLE "3:cjc173_3046"
    INDEX 01 00:12:04
  TRACK 13 AUDIO
    TITLE "0:"
    INDEX 01 00:13:27
  TRACK 14 AUDIO
    TITLE "4:cjc173_3047"
    INDEX 01 00:13:46
  TRACK 15 AUDIO
    TITLE "0:"
    INDEX 01 00:15:73
  TRACK 16 AUDIO
    TITLE "5:cjc173_3048"
    INDEX 01 00:16:23
  TRACK 17 AUDIO
    TITLE "0:"
    INDEX 01 00:21:05
  TRACK 18 AUDIO
    TITLE "3:cjc173_3049"
    INDEX 01 00:21:52
  TRACK 19 AUDIO
    TITLE "0:"
    INDEX 01 00:22:61
  TRACK 20 AUDIO
    TITLE "4:cjc173_3050"
    INDEX 01 00:23:07
  TRACK 21 AUDIO
    TITLE "0:"
    INDEX 01 00:24:54
  TRACK 22 AUDIO
    TITLE "5:cjc173_3051"
    INDEX 01 00:24:72
  TRACK 23 AUDIO
    TITLE "0:"
    INDEX 01 00:28:44
  TRACK 24 AUDIO
    TITLE "3:cjc173_3052"
    INDEX 01 00:29:16
  TRACK 25 AUDIO
    TITLE "0:"
    INDEX 01 00:30:47
  TRACK 26 AUDIO
    TITLE "4:cjc173_3053"
    INDEX 01 00:30:66
  TRACK 27 AUDIO
    TITLE "0:"
    INDEX 01 00:35:46
  TRACK 28 AUDIO
    TITLE "5:cjc173_3054"
    INDEX 01 00:35:65
  TRACK 29 AUDIO
    TITLE "0:"
    INDEX 01 00:39:55
  TRACK 30 AUDIO
    TITLE "3:cjc173_3055"
    INDEX 01 00:40:27
  TRACK 31 AUDIO
    TITLE "0:"
    INDEX 01 00:41:46
  TRACK 32 AUDIO
    TITLE "4:cjc173_3056"
    INDEX 01 00:41:68
  TRACK 33 AUDIO
    TITLE "0:"
    INDEX 01 00:46:16
  TRACK 34 AUDIO
    TITLE "5:cjc173_3057"
    INDEX 01 00:46:38
  TRACK 35 AUDIO
    TITLE "0:"
    INDEX 01 00:50:55
  TRACK 36 AUDIO
    TITLE "3:cjc173_3058"
    INDEX 01 00:51:25
  TRACK 37 AUDIO
    TITLE "0:"
    INDEX 01 00:52:33
  TRACK 38 AUDIO
    TITLE "4:cjc173_3059"
    INDEX 01 00:52:54
  TRACK 39 AUDIO
    TITLE "0:"
    INDEX 01 00:55:52
  TRACK 40 AUDIO
    TITLE "5:cjc173_3060"
    INDEX 01 00:55:72
  TRACK 41 AUDIO
    TITLE "0:"
    INDEX 01 01:01:43
  TRACK 42 AUDIO
    TITLE "3:cjc173_3061"
    INDEX 01 01:02:13
  TRACK 43 AUDIO
    TITLE "0:"
    INDEX 01 01:03:30
  TRACK 44 AUDIO
    TITLE "4:cjc173_3062"
    INDEX 01 01:03:52
  TRACK 45 AUDIO
    TITLE "0:"
    INDEX 01 01:05:31
  TRACK 46 AUDIO
    TITLE "5:cjc173_3063"
    INDEX 01 01:05:53
  TRACK 47 AUDIO
    TITLE "0:"
    INDEX 01 01:10:34
  TRACK 48 AUDIO
    TITLE "3:cjc173_3064"
    INDEX 01 01:11:06
  TRACK 49 AUDIO
    TITLE "0:"
    INDEX 01 01:12:24
  TRACK 50 AUDIO
    TITLE "4:cjc173_3065"
    INDEX 01 01:12:45
  TRACK 51 AUDIO
    TITLE "0:"
    INDEX 01 01:16:47
  TRACK 52 AUDIO
    TITLE "5:cjc173_3066"
    INDEX 01 01:16:68
  TRACK 53 AUDIO
    TITLE "0:"
    INDEX 01 01:20:58
  TRACK 54 AUDIO
    TITLE "3:cjc173_3067"
    INDEX 01 01:21:32
  TRACK 55 AUDIO
    TITLE "0:"
    INDEX 01 01:22:57
  TRACK 56 AUDIO
    TITLE "4:cjc173_3068"
    INDEX 01 01:23:06
  TRACK 57 AUDIO
    TITLE "0:"
    INDEX 01 01:26:39
  TRACK 58 AUDIO
    TITLE "5:cjc173_3069"
    INDEX 01 01:26:61
  TRACK 59 AUDIO
    TITLE "0:"
    INDEX 01 01:31:05
